<svg width="20" height="17" viewBox="0 0 20 17" fill="none" xmlns="http://www.w3.org/2000/svg">
<path d="M1.90625 7.65625H18.7812C19.005 7.65625 19.2196 7.74515 19.3779 7.90338C19.5361 8.06161 19.625 8.27622 19.625 8.5C19.625 8.72378 19.5361 8.93839 19.3779 9.09662C19.2196 9.25486 19.005 9.34375 18.7812 9.34375H1.90625C1.68247 9.34375 1.46786 9.25486 1.30963 9.09662C1.1514 8.93839 1.0625 8.72378 1.0625 8.5C1.0625 8.27622 1.1514 8.06161 1.30963 7.90338C1.46786 7.74515 1.68247 7.65625 1.90625 7.65625Z" fill="#58703B"/>
<path d="M2.25512 8.50009L9.25318 15.4965C9.41161 15.6549 9.50062 15.8698 9.50062 16.0938C9.50062 16.3179 9.41161 16.5328 9.25318 16.6912C9.09475 16.8496 8.87986 16.9387 8.6558 16.9387C8.43175 16.9387 8.21686 16.8496 8.05843 16.6912L0.46468 9.09746C0.386105 9.01909 0.323764 8.92598 0.281228 8.82347C0.238692 8.72096 0.216797 8.61107 0.216797 8.50009C0.216797 8.38911 0.238692 8.27921 0.281228 8.17671C0.323764 8.0742 0.386105 7.98109 0.46468 7.90271L8.05843 0.308964C8.21686 0.15053 8.43175 0.0615234 8.6558 0.0615234C8.87986 0.0615234 9.09475 0.15053 9.25318 0.308964C9.41161 0.467398 9.50062 0.68228 9.50062 0.906339C9.50062 1.1304 9.41161 1.34528 9.25318 1.50371L2.25512 8.50009Z" fill="#58703B"/>
</svg>
