<svg width="22" height="20" viewBox="0 0 22 20" fill="none" xmlns="http://www.w3.org/2000/svg">
<path d="M21.4217 18.325L17.203 8.10625C17.1251 7.91754 16.9929 7.7562 16.8232 7.64267C16.6535 7.52915 16.4539 7.46855 16.2498 7.46855C16.0456 7.46855 15.846 7.52915 15.6763 7.64267C15.5067 7.7562 15.3745 7.91754 15.2966 8.10625L11.0778 18.325C11.0254 18.4503 10.9982 18.5848 10.9978 18.7206C10.9975 18.8565 11.024 18.9911 11.0758 19.1166C11.1276 19.2422 11.2038 19.3563 11.2998 19.4524C11.3959 19.5484 11.51 19.6246 11.6356 19.6764C11.7611 19.7283 11.8957 19.7548 12.0316 19.7545C12.1674 19.7541 12.3019 19.727 12.4272 19.6745C12.5525 19.6221 12.6662 19.5454 12.7618 19.4489C12.8574 19.3523 12.933 19.2379 12.9842 19.112L13.8434 17.0313H18.6561L19.5153 19.112C19.5932 19.3008 19.7254 19.4623 19.8951 19.5758C20.0649 19.6894 20.2645 19.75 20.4688 19.75C20.6382 19.7499 20.805 19.708 20.9545 19.6281C21.1039 19.5482 21.2313 19.4327 21.3255 19.2918C21.4197 19.1509 21.4777 18.989 21.4944 18.8204C21.5111 18.6518 21.486 18.4816 21.4213 18.325H21.4217ZM14.6952 14.9688L16.25 11.2023L17.8048 14.9688H14.6952ZM11.555 14.0744C11.7152 13.8531 11.7811 13.5772 11.7381 13.3074C11.6951 13.0376 11.5468 12.7959 11.3258 12.6353C11.3164 12.6283 10.6227 12.1136 9.61531 11.0073C11.4739 8.49109 12.5267 5.62844 12.9561 4.28125H14.4688C14.7423 4.28125 15.0046 4.1726 15.198 3.9792C15.3914 3.78581 15.5 3.5235 15.5 3.25C15.5 2.9765 15.3914 2.71419 15.198 2.5208C15.0046 2.3274 14.7423 2.21875 14.4688 2.21875H9.03125V1.28125C9.03125 1.00775 8.9226 0.745443 8.7292 0.552046C8.53581 0.358649 8.27351 0.25 8 0.25C7.7265 0.25 7.46419 0.358649 7.2708 0.552046C7.0774 0.745443 6.96875 1.00775 6.96875 1.28125V2.21875H1.53125C1.25775 2.21875 0.995443 2.3274 0.802046 2.5208C0.608649 2.71419 0.5 2.9765 0.5 3.25C0.5 3.5235 0.608649 3.78581 0.802046 3.9792C0.995443 4.1726 1.25775 4.28125 1.53125 4.28125H10.7773C10.3311 5.54453 9.50938 7.53906 8.25594 9.36063C6.78359 7.40688 6.23656 6.14266 6.23234 6.13234C6.12456 5.88324 5.92291 5.68668 5.67114 5.58529C5.41937 5.4839 5.13778 5.48585 4.88743 5.59072C4.63709 5.6956 4.43819 5.89494 4.33387 6.14551C4.22954 6.39608 4.22821 6.67767 4.33016 6.92922C4.35734 6.99391 5.01219 8.53375 6.80797 10.8634C6.85109 10.9192 6.89375 10.9736 6.93641 11.028C5.09703 13.1069 3.29234 14.3964 2.53719 14.8127C2.29706 14.9436 2.1188 15.1646 2.04162 15.427C1.96444 15.6894 1.99465 15.9718 2.12563 16.2119C2.2566 16.452 2.47759 16.6303 2.74 16.7074C3.0024 16.7846 3.28472 16.7544 3.52484 16.6234C3.62609 16.5681 5.80297 15.363 8.28875 12.6114C9.34438 13.7402 10.07 14.2727 10.1136 14.3036C10.2233 14.3833 10.3476 14.4405 10.4794 14.4721C10.6113 14.5037 10.748 14.509 10.8819 14.4876C11.0158 14.4663 11.1442 14.4188 11.2597 14.3478C11.3751 14.2768 11.4755 14.1837 11.555 14.0739V14.0744Z" fill="#58703B"/>
</svg>
