<svg width="24" height="24" viewBox="0 0 24 24" fill="none" xmlns="http://www.w3.org/2000/svg">
<path d="M22.8751 10.4999C22.8733 9.00856 22.2801 7.57883 21.2256 6.52431C20.1711 5.4698 18.7414 4.87661 17.2501 4.87487C17.1563 4.87487 17.0672 4.87487 16.9763 4.88237C16.4988 3.97628 15.7829 3.21777 14.906 2.68865C14.029 2.15953 13.0243 1.87988 12.0001 1.87988C10.9758 1.87988 9.97106 2.15953 9.09411 2.68865C8.21716 3.21777 7.50132 3.97628 7.0238 4.88237C6.93755 4.87487 6.8438 4.87487 6.75005 4.87487C5.49559 4.87747 4.27799 5.29934 3.29082 6.07341C2.30365 6.84748 1.60356 7.92932 1.30184 9.14697C1.00012 10.3646 1.11409 11.6482 1.62564 12.7936C2.13718 13.939 3.01694 14.8806 4.12505 15.4686V19.4999C4.12505 19.9972 4.3226 20.4741 4.67423 20.8257C5.02586 21.1773 5.50277 21.3749 6.00005 21.3749H18.0001C18.4973 21.3749 18.9742 21.1773 19.3259 20.8257C19.6775 20.4741 19.8751 19.9972 19.8751 19.4999V15.4686C20.7796 14.9914 21.5368 14.2766 22.0654 13.4011C22.594 12.5256 22.8739 11.5226 22.8751 10.4999ZM17.6251 19.1249H6.37505V16.1108C6.4988 16.1192 6.62349 16.1249 6.75005 16.1249H17.2501C17.3766 16.1249 17.5013 16.1192 17.6251 16.1108V19.1249ZM17.2501 13.8749H16.441L16.8413 12.2727C16.9079 11.9853 16.859 11.6832 16.7051 11.4315C16.5511 11.1798 16.3045 10.9987 16.0182 10.9272C15.732 10.8556 15.4291 10.8994 15.1749 11.049C14.9206 11.1986 14.7353 11.4421 14.6588 11.7271L14.1216 13.8749H13.1251V11.9999C13.1251 11.7015 13.0065 11.4154 12.7955 11.2044C12.5846 10.9934 12.2984 10.8749 12.0001 10.8749C11.7017 10.8749 11.4155 10.9934 11.2046 11.2044C10.9936 11.4154 10.8751 11.7015 10.8751 11.9999V13.8749H9.87849L9.3413 11.7271C9.30757 11.5816 9.24519 11.4442 9.15783 11.3231C9.07046 11.202 8.95984 11.0994 8.83243 11.0215C8.70502 10.9435 8.56336 10.8918 8.41572 10.8691C8.26809 10.8465 8.11742 10.8535 7.97252 10.8898C7.82762 10.926 7.69139 10.9907 7.57176 11.0801C7.45214 11.1696 7.35152 11.2819 7.27577 11.4106C7.20003 11.5394 7.15067 11.6819 7.13059 11.8299C7.11051 11.9779 7.1201 12.1284 7.1588 12.2727L7.55911 13.8749H6.75005C5.8866 13.8746 5.05611 13.5433 4.42945 12.9493C3.80279 12.3553 3.42762 11.5437 3.38114 10.6815C3.33466 9.81935 3.62041 8.97213 4.17958 8.3142C4.73876 7.65628 5.52883 7.23769 6.38724 7.14456C6.37974 7.26268 6.37505 7.38081 6.37505 7.49987C6.37505 7.79824 6.49358 8.08439 6.70456 8.29537C6.91554 8.50635 7.20168 8.62487 7.50005 8.62487C7.79842 8.62487 8.08457 8.50635 8.29555 8.29537C8.50653 8.08439 8.62505 7.79824 8.62505 7.49987C8.62505 6.60477 8.98063 5.74632 9.61357 5.11339C10.2465 4.48045 11.1049 4.12487 12.0001 4.12487C12.8952 4.12487 13.7536 4.48045 14.3865 5.11339C15.0195 5.74632 15.3751 6.60477 15.3751 7.49987C15.3751 7.79824 15.4936 8.08439 15.7046 8.29537C15.9155 8.50635 16.2017 8.62487 16.5001 8.62487C16.7984 8.62487 17.0846 8.50635 17.2955 8.29537C17.5065 8.08439 17.6251 7.79824 17.6251 7.49987C17.6251 7.38081 17.6204 7.26268 17.6129 7.14456C18.4713 7.23769 19.2614 7.65628 19.8205 8.3142C20.3797 8.97213 20.6654 9.81935 20.619 10.6815C20.5725 11.5437 20.1973 12.3553 19.5707 12.9493C18.944 13.5433 18.1135 13.8746 17.2501 13.8749Z" fill="#BDB96E"/>
</svg>
