<svg width="24" height="24" viewBox="0 0 24 24" fill="none" xmlns="http://www.w3.org/2000/svg">
<path d="M20.638 14.136L20.539 13.141L20.506 13.144L20.474 13.15L20.638 14.136ZM20.638 14.136L20.738 15.131L20.771 15.128L20.803 15.123L20.638 14.136ZM16.598 19.618L17.231 18.844L17.223 18.838L16.598 19.618ZM16.598 19.618L15.965 20.392L15.973 20.399L16.598 19.618ZM7.40202 19.618L6.76902 18.845L6.75302 18.858L6.73802 18.871L7.40202 19.618ZM7.40202 19.618L8.03502 20.393L8.05102 20.38L8.06602 20.366L7.40202 19.618ZM3.36102 9.86402V8.86402H3.31102L3.26202 8.86902L3.36102 9.86402ZM3.36102 9.86402V10.864H3.41102L3.46102 10.859L3.36102 9.86402ZM15.131 3.26102C15.1143 3.0687 15.0906 2.87694 15.062 2.68602C15.0308 2.47595 14.9667 2.27211 14.872 2.08202L13.095 3.00002C13.072 2.95502 13.077 2.93902 13.09 3.01802C13.105 3.10702 13.118 3.23102 13.141 3.46102L15.131 3.26102ZM15.226 4.21102C15.289 4.29302 15.268 4.33002 15.233 4.13502C15.2 3.94902 15.174 3.68802 15.131 3.26102L13.14 3.46002C13.18 3.85402 13.214 4.20802 13.265 4.49002C13.314 4.76002 13.4 5.11502 13.635 5.42302L15.226 4.21102ZM15.226 4.21102L13.635 5.42302C13.849 5.70387 14.1336 5.92305 14.4597 6.05829C14.7859 6.19354 15.1421 6.24002 15.492 6.19302L15.226 4.21102ZM15.964 3.60602C15.7399 3.79543 15.5094 3.9772 15.273 4.15102C15.11 4.26402 15.123 4.22402 15.226 4.21102L15.492 6.19302C15.876 6.14102 16.188 5.95102 16.414 5.79302C16.649 5.63102 16.924 5.40502 17.23 5.15402L15.964 3.60602ZM16.98 2.95602C16.7788 3.02329 16.5895 3.12184 16.419 3.24802C16.279 3.34802 16.122 3.47702 15.964 3.60602L17.23 5.15402C17.409 5.00802 17.506 4.92902 17.58 4.87702C17.645 4.83002 17.636 4.84602 17.589 4.86102L16.98 2.95602ZM18.384 3.02602C17.9399 2.83357 17.4411 2.80869 16.98 2.95602L17.589 4.86102L18.384 3.02602ZM19.33 3.77402C19.1954 3.63551 19.0564 3.50144 18.913 3.37202C18.7556 3.22955 18.5768 3.11279 18.383 3.02602L17.589 4.86102C17.543 4.84102 17.536 4.82502 17.596 4.87802C17.664 4.93802 17.753 5.02502 17.916 5.18802L19.33 3.77402ZM20.224 4.66802L19.33 3.77402L17.916 5.18802L18.81 6.08202L20.224 4.66802ZM20.972 5.61402C20.8853 5.42027 20.7685 5.24141 20.626 5.08402C20.4963 4.94126 20.3623 4.80252 20.224 4.66802L18.81 6.08302C18.973 6.24602 19.06 6.33502 19.12 6.40302C19.173 6.46302 19.157 6.45602 19.137 6.41002L20.972 5.61402ZM21.042 7.01802C21.1893 6.55697 21.1645 6.05813 20.972 5.61402L19.137 6.41002L21.042 7.01802ZM20.392 8.03402C20.5165 7.88644 20.6359 7.73469 20.75 7.57902C20.856 7.43102 20.97 7.24702 21.042 7.01802L19.137 6.41002C19.152 6.36302 19.167 6.35302 19.121 6.41902C19.069 6.49202 18.991 6.58902 18.844 6.76802L20.392 8.03402ZM19.787 8.77302C19.774 8.87602 19.734 8.88802 19.847 8.72502C19.954 8.57002 20.12 8.36602 20.392 8.03402L18.844 6.76802C18.594 7.07402 18.367 7.34902 18.204 7.58402C18.047 7.81002 17.857 8.12202 17.805 8.50602L19.787 8.77302ZM19.787 8.77302L17.805 8.50602C17.758 8.85597 17.8045 9.21213 17.9397 9.5383C18.075 9.86446 18.2942 10.149 18.575 10.363L19.787 8.77302ZM20.737 8.86802C20.4446 8.84355 20.1531 8.80919 19.863 8.76502C19.668 8.73002 19.705 8.71002 19.787 8.77302L18.575 10.363C18.883 10.598 19.237 10.684 19.509 10.733C19.79 10.783 20.144 10.818 20.538 10.858L20.737 8.86802ZM21.916 9.12602C21.7259 9.03133 21.5221 8.96721 21.312 8.93602C21.1211 8.90742 20.9293 8.88474 20.737 8.86802L20.538 10.858C20.6861 10.8711 20.8338 10.8877 20.981 10.908C21.061 10.922 21.044 10.927 20.999 10.904L21.916 9.12602ZM22.859 10.169C22.6813 9.71868 22.3462 9.34809 21.916 9.12602L21 10.906L22.859 10.169ZM22.999 11.367C22.999 11.163 22.999 10.96 22.988 10.788C22.9776 10.5758 22.9337 10.3665 22.858 10.168L21 10.906C20.982 10.859 20.988 10.843 20.994 10.923C21 11.013 21 11.138 21 11.369L22.999 11.367ZM22.999 12.631V11.367H20.999V12.631H22.999ZM22.859 13.829C22.947 13.606 22.976 13.392 22.988 13.209C22.999 13.038 22.999 12.835 22.999 12.631H20.999C20.999 12.862 20.999 12.987 20.993 13.077C20.987 13.157 20.981 13.141 20.999 13.094L22.859 13.829ZM21.916 14.872C22.3462 14.65 22.6813 14.2794 22.859 13.829L21 13.095L21.916 14.872ZM20.737 15.13C20.941 15.11 21.142 15.09 21.312 15.062C21.492 15.032 21.702 14.982 21.916 14.872L21 13.095C21.044 13.072 21.061 13.077 20.982 13.09C20.8349 13.1113 20.6872 13.1283 20.539 13.141L20.737 15.13ZM19.788 15.225C19.705 15.288 19.668 15.268 19.863 15.233C20.049 15.2 20.31 15.173 20.737 15.13L20.538 13.14C20.145 13.18 19.79 13.214 19.509 13.265C19.238 13.314 18.883 13.4 18.575 13.635L19.788 15.225ZM19.788 15.225L18.575 13.635C18.2942 13.849 18.075 14.1336 17.9397 14.4597C17.8045 14.7859 17.758 15.1421 17.805 15.492L19.788 15.225ZM20.392 15.963C20.2027 15.7392 20.0209 15.5091 19.847 15.273C19.734 15.11 19.775 15.122 19.788 15.225L17.805 15.492C17.857 15.876 18.047 16.188 18.205 16.414C18.368 16.649 18.594 16.924 18.844 17.23L20.392 15.963ZM21.042 16.979C20.9747 16.7782 20.8761 16.5892 20.75 16.419C20.65 16.278 20.521 16.122 20.392 15.963L18.844 17.23C18.99 17.409 19.069 17.505 19.121 17.579C19.168 17.644 19.153 17.636 19.137 17.589L21.042 16.979ZM20.972 18.384C21.1647 17.9396 21.1896 17.4404 21.042 16.979L19.137 17.589L20.972 18.384ZM20.224 19.33C20.369 19.185 20.512 19.043 20.626 18.913C20.746 18.775 20.876 18.604 20.972 18.383L19.137 17.588C19.157 17.542 19.173 17.536 19.12 17.596C19.06 17.664 18.973 17.752 18.81 17.916L20.224 19.33ZM19.33 20.223L20.224 19.33L18.81 17.916L17.916 18.809L19.33 20.223ZM18.384 20.972C18.5778 20.8849 18.7567 20.7678 18.914 20.625C19.043 20.512 19.186 20.368 19.33 20.223L17.916 18.809C17.8123 18.9153 17.7056 19.0187 17.596 19.119C17.536 19.173 17.543 19.157 17.589 19.137L18.384 20.972ZM16.98 21.042C17.4411 21.1893 17.9399 21.1645 18.384 20.972L17.589 19.137L16.98 21.042ZM15.964 20.392C16.122 20.521 16.278 20.65 16.419 20.75C16.567 20.855 16.751 20.969 16.98 21.042L17.589 19.137C17.636 19.152 17.645 19.167 17.579 19.121C17.4601 19.0321 17.3437 18.9397 17.23 18.844L15.964 20.392ZM15.226 19.788C15.123 19.773 15.11 19.733 15.273 19.846C15.428 19.954 15.631 20.119 15.963 20.391L17.23 18.844C16.924 18.593 16.649 18.367 16.414 18.204C16.188 18.046 15.876 17.857 15.492 17.805L15.226 19.788ZM15.226 19.788L15.492 17.805C15.1421 17.758 14.7859 17.8045 14.4597 17.9397C14.1336 18.075 13.849 18.2942 13.635 18.575L15.226 19.788ZM15.13 20.737C15.173 20.31 15.2 20.048 15.233 19.863C15.268 19.668 15.288 19.704 15.225 19.787L13.635 18.574C13.4 18.882 13.314 19.237 13.265 19.508C13.215 19.79 13.181 20.144 13.141 20.538L15.13 20.737ZM14.871 21.916C14.981 21.702 15.031 21.492 15.061 21.312C15.091 21.142 15.109 20.941 15.13 20.737L13.141 20.538C13.1277 20.6865 13.1103 20.8335 13.089 20.981C13.076 21.061 13.071 21.044 13.094 20.999L14.871 21.916ZM13.83 22.859C14.2796 22.6809 14.6494 22.3459 14.871 21.916L13.095 21L13.83 22.859ZM12.63 22.999C12.835 22.999 13.038 22.999 13.21 22.988C13.392 22.976 13.606 22.949 13.83 22.859L13.095 21C13.142 20.982 13.158 20.988 13.078 20.994C12.9294 21.0003 12.7807 21.0023 12.632 21L12.63 22.999ZM11.367 22.999H12.63L12.631 20.999H11.367V22.999ZM10.169 22.859C10.392 22.947 10.606 22.976 10.789 22.988C10.96 22.999 11.163 22.999 11.367 22.999V20.999C11.136 20.999 11.011 20.999 10.921 20.993C10.841 20.987 10.857 20.981 10.904 20.999L10.169 22.859ZM9.12602 21.916C9.34809 22.3462 9.71868 22.6813 10.169 22.859L10.904 20.999L9.12602 21.916ZM8.86802 20.737C8.88802 20.941 8.90802 21.142 8.93602 21.312C8.96602 21.492 9.01602 21.702 9.12602 21.916L10.906 21C10.929 21.044 10.924 21.061 10.911 20.982C10.8897 20.8349 10.8727 20.6872 10.86 20.539L8.86802 20.737ZM8.77302 19.787C8.71002 19.705 8.73002 19.667 8.76502 19.863C8.79802 20.048 8.82502 20.31 8.86802 20.737L10.858 20.538C10.818 20.144 10.784 19.79 10.733 19.508C10.684 19.238 10.598 18.883 10.363 18.575L8.77302 19.787ZM8.77302 19.787L10.363 18.575C10.149 18.2942 9.86446 18.075 9.5383 17.9397C9.21213 17.8045 8.85597 17.758 8.50602 17.805L8.77302 19.787ZM8.03402 20.392C8.36702 20.12 8.57002 19.954 8.72502 19.847C8.88802 19.734 8.87602 19.774 8.77302 19.787L8.50602 17.805C8.12202 17.857 7.81002 18.047 7.58402 18.205C7.34902 18.367 7.07402 18.593 6.76802 18.844L8.03402 20.392ZM7.01802 21.042C7.21919 20.9747 7.40851 20.8762 7.57902 20.75C7.71902 20.65 7.87602 20.521 8.03402 20.392L6.76902 18.845C6.65503 18.9407 6.53932 19.0331 6.42002 19.122C6.35502 19.169 6.36402 19.154 6.41102 19.138L7.01802 21.042ZM5.61402 20.972C6.05813 21.1645 6.55697 21.1893 7.01802 21.042L6.40902 19.137L5.61402 20.972ZM4.66702 20.224C4.81202 20.369 4.95502 20.512 5.08502 20.626C5.22202 20.746 5.39302 20.877 5.61502 20.973L6.40902 19.137C6.45502 19.157 6.46202 19.173 6.40202 19.12C6.29238 19.0198 6.18567 18.9164 6.08202 18.81L4.66702 20.224ZM3.77402 19.33L4.66802 20.224L6.08202 18.81L5.18802 17.916L3.77402 19.33ZM3.02602 18.384C3.12102 18.604 3.25202 18.776 3.37202 18.914C3.48602 19.043 3.62902 19.186 3.77402 19.33L5.18802 17.916C5.08164 17.8124 4.97826 17.7056 4.87802 17.596C4.82502 17.536 4.84102 17.543 4.86102 17.589L3.02602 18.384ZM2.95602 16.98C2.80869 17.4411 2.83357 17.9399 3.02602 18.384L4.86102 17.589L2.95602 16.98ZM3.60602 15.964C3.48158 16.1116 3.36218 16.2634 3.24802 16.419C3.12184 16.5895 3.02329 16.7788 2.95602 16.98L4.86102 17.589C4.84502 17.636 4.83102 17.645 4.87702 17.579C4.92902 17.506 5.00702 17.409 5.15402 17.23L3.60602 15.964ZM4.21002 15.225C4.22402 15.122 4.26402 15.11 4.15102 15.273C4.04402 15.428 3.87802 15.632 3.60602 15.964L5.15402 17.23C5.40402 16.924 5.63102 16.649 5.79402 16.414C5.95102 16.188 6.14102 15.876 6.19302 15.492L4.21002 15.225ZM4.21002 15.225L6.19302 15.492C6.24002 15.1421 6.19354 14.7859 6.05829 14.4597C5.92305 14.1336 5.70387 13.849 5.42302 13.635L4.21002 15.225ZM3.26002 15.13C3.68802 15.173 3.95002 15.2 4.13502 15.233C4.33002 15.268 4.29302 15.288 4.21002 15.225L5.42302 13.635C5.11502 13.4 4.76102 13.314 4.48902 13.265C4.20802 13.215 3.85402 13.18 3.45902 13.14L3.26002 15.13ZM2.08202 14.872C2.29602 14.982 2.50602 15.032 2.68602 15.062C2.85602 15.09 3.05702 15.111 3.26102 15.131L3.45902 13.14C3.3109 13.1276 3.16417 13.111 3.01702 13.09C2.93702 13.076 2.95402 13.071 2.99902 13.094L2.08202 14.872ZM1.14002 13.83C1.31775 14.2804 1.65281 14.651 2.08302 14.873L3.00002 13.095L1.14002 13.83ZM1.00002 12.632C1.00002 12.836 1.00002 13.039 1.01102 13.211C1.02302 13.393 1.05102 13.607 1.14102 13.831L3.00002 13.094C3.01802 13.141 3.01202 13.157 3.00702 13.077C3.00042 12.9288 2.99809 12.7804 3.00002 12.632H1.00002ZM1.00002 11.368V12.632H3.00002V11.368H1.00002ZM1.14002 10.169C1.06469 10.3676 1.02116 10.5769 1.01102 10.789C0.99902 10.961 1.00002 11.164 1.00002 11.369H3.00002C3.00002 11.137 3.00002 11.012 3.00702 10.922C3.01202 10.842 3.01802 10.858 3.00002 10.905L1.14002 10.169ZM2.08302 9.12802C1.65317 9.3496 1.31816 9.71942 1.14002 10.169L3.00002 10.905L2.08302 9.12802ZM3.26202 8.86802C3.05802 8.88902 2.85702 8.90802 2.68702 8.93802C2.50702 8.96802 2.29702 9.01802 2.08302 9.12802L3.00002 10.905C2.95502 10.928 2.93902 10.923 3.01802 10.91C3.16516 10.8887 3.31289 10.8717 3.46102 10.859L3.26202 8.86802ZM4.21202 8.77402C4.29502 8.71102 4.33202 8.73102 4.13602 8.76602C3.95102 8.79902 3.68902 8.82602 3.26202 8.86902L3.46102 10.859C3.85402 10.819 4.20902 10.785 4.49102 10.734C4.76202 10.685 5.11702 10.599 5.42502 10.364L4.21202 8.77402ZM4.21202 8.77402L5.42502 10.364C5.70569 10.1499 5.92467 9.8653 6.05974 9.53914C6.1948 9.21298 6.24113 8.85688 6.19402 8.50702L4.21202 8.77402ZM3.60702 8.03502C3.87902 8.36702 4.04502 8.57102 4.15302 8.72602C4.26602 8.88902 4.22602 8.87702 4.21202 8.77402L6.19402 8.50702C6.14202 8.12302 5.95302 7.81202 5.79502 7.58502C5.63202 7.35002 5.40502 7.07502 5.15502 6.76902L3.60702 8.03502ZM2.95702 7.01802C3.03002 7.24802 3.14302 7.43102 3.24902 7.58002C3.34902 7.72002 3.47802 7.87702 3.60702 8.03502L5.15502 6.76902C5.05934 6.65504 4.96697 6.53933 4.87802 6.42002C4.83102 6.35502 4.84702 6.36302 4.86202 6.41002L2.95702 7.01802ZM3.02702 5.61502C2.83481 6.05884 2.80995 6.55727 2.95702 7.01802L4.86202 6.41002L3.02702 5.61502ZM3.77502 4.66802C3.63002 4.81302 3.48702 4.95502 3.37302 5.08502C3.23055 5.24241 3.11379 5.42127 3.02702 5.61502L4.86202 6.41002C4.84202 6.45602 4.82602 6.46302 4.87902 6.40202C4.93902 6.33402 5.02602 6.24602 5.18902 6.08202L3.77502 4.66802ZM4.66902 3.77502L3.77502 4.66802L5.18902 6.08202L6.08402 5.18902L4.66902 3.77502ZM5.61502 3.02602C5.4212 3.11309 5.24234 3.2302 5.08502 3.37302C4.94226 3.50271 4.80352 3.63678 4.66902 3.77502L6.08402 5.18902C6.24702 5.02502 6.33502 4.93802 6.40302 4.87902C6.46302 4.82502 6.45602 4.84102 6.41002 4.86102L5.61502 3.02602ZM7.01902 2.95602C6.55797 2.80869 6.05913 2.83357 5.61502 3.02602L6.41002 4.86102L7.01902 2.95602ZM8.03402 3.60602C7.87602 3.47702 7.72102 3.34902 7.58002 3.24902C7.40958 3.12248 7.22025 3.0236 7.01902 2.95602L6.41002 4.86102C6.36302 4.84602 6.35402 4.83102 6.42002 4.87702C6.49302 4.93002 6.59002 5.00802 6.76902 5.15502L8.03402 3.60602ZM8.77402 4.21102C8.87702 4.22502 8.88902 4.26502 8.72602 4.15202C8.48995 3.97817 8.25982 3.7964 8.03602 3.60702L6.76902 5.15502C7.07502 5.40502 7.34902 5.63102 7.58402 5.79502C7.81002 5.95202 8.12202 6.14102 8.50602 6.19302L8.77402 4.21102ZM8.77402 4.21102L8.50702 6.19302C8.85697 6.24002 9.21313 6.19354 9.5393 6.05829C9.86546 5.92305 10.15 5.70387 10.364 5.42302L8.77402 4.21102ZM8.86902 3.26102C8.82602 3.68902 8.79902 3.95102 8.76602 4.13602C8.73102 4.33102 8.71102 4.29402 8.77402 4.21102L10.364 5.42302C10.599 5.11502 10.685 4.76102 10.734 4.49002C10.784 4.20902 10.82 3.85402 10.859 3.46002L8.86902 3.26102ZM9.12702 2.08302C9.03233 2.27311 8.96821 2.47695 8.93702 2.68702C8.90902 2.85702 8.88902 3.05802 8.86902 3.26202L10.859 3.46002C10.8721 3.31197 10.8887 3.16526 10.909 3.01802C10.923 2.93802 10.928 2.95602 10.905 3.00002L9.12702 2.08302ZM10.17 1.14002C9.71968 1.31775 9.34909 1.65281 9.12702 2.08302L10.905 3.00002L10.17 1.14002ZM11.368 1.00002C11.164 1.00002 10.961 1.00002 10.789 1.01102C10.5769 1.02116 10.3676 1.06469 10.169 1.14002L10.906 3.00002C10.859 3.01802 10.843 3.01202 10.923 3.00702C11.013 3.00102 11.138 3.00002 11.369 3.00002L11.368 1.00002ZM12.632 1.00002H11.368V3.00002H12.632V1.00002ZM13.83 1.14002C13.6314 1.06469 13.4222 1.02116 13.21 1.01102C13.04 0.99902 12.837 1.00002 12.633 1.00002V3.00002C12.864 3.00002 12.989 3.00002 13.079 3.00702C13.159 3.01202 13.142 3.01802 13.095 3.00002L13.83 1.14002ZM14.873 2.08302C14.651 1.65281 14.2804 1.31775 13.83 1.14002L13.095 3.00002L14.873 2.08302ZM15 12C15 12.7957 14.6839 13.5587 14.1213 14.1213C13.5587 14.6839 12.7957 15 12 15V17C13.3261 17 14.5979 16.4732 15.5356 15.5356C16.4732 14.5979 17 13.3261 17 12H15ZM12 9.00002C12.7957 9.00002 13.5587 9.31609 14.1213 9.8787C14.6839 10.4413 15 11.2044 15 12H17C17 10.6739 16.4732 9.40217 15.5356 8.46449C14.5979 7.5268 13.3261 7.00002 12 7.00002V9.00002ZM9.00002 12C9.00002 11.2044 9.31609 10.4413 9.8787 9.8787C10.4413 9.31609 11.2044 9.00002 12 9.00002V7.00002C10.6739 7.00002 9.40217 7.5268 8.46449 8.46449C7.5268 9.40217 7.00002 10.6739 7.00002 12H9.00002ZM12 15C11.2044 15 10.4413 14.6839 9.8787 14.1213C9.31609 13.5587 9.00002 12.7957 9.00002 12H7.00002C7.00002 13.3261 7.5268 14.5979 8.46449 15.5356C9.40217 16.4732 10.6739 17 12 17V15Z" fill="#BDB96E"/>
</svg>
